<?xml version="1.0" encoding="UTF-8"?>
<svg width="376px" height="293px" viewBox="0 0 376 293" version="1.1" xmlns="http://www.w3.org/2000/svg" xmlns:xlink="http://www.w3.org/1999/xlink">
    <!-- Generator: Sketch 59.1 (86144) - https://sketch.com -->
    <title>Classification diagram 3</title>
    <desc>Created with Sketch.</desc>
    <g id="Classification-diagram-3" stroke="none" stroke-width="1" fill="none" fill-rule="evenodd">
        <path d="M83.0828402,146 C83.0828402,141.183234 80.0645112,138.949336 74.4169585,138.279296 C73.0201385,138.113574 71.8088316,138.058525 69.8713298,138.050243 L69.8713298,138.050243 L67.8662911,138.051872 C67.6652722,138.052696 67.4727342,138.055589 67.2612449,138.06144 L67.2612449,138.06144 L66.8048698,138.077353 L64.9338085,138.17157 C62.2153849,138.270427 16.2995589,138.325054 14.7775923,138.20381 L14.7775923,138.20381 L14.4434677,138.174229 C10.1326487,137.753587 7.10099485,135.919482 5.34055011,131.940175 C4.56918997,130.196593 4,124.821539 4,121 L4,121 L5.91715976,121 C5.91715976,124.556376 6.46652896,129.744256 7.09291429,131.160137 C8.58214109,134.526383 11.0869489,135.980672 14.9293703,136.286769 C16.3714217,136.401647 63.1224651,136.344773 64.8992449,136.248296 L64.8992449,136.248296 L66.4031839,136.170034 C66.7697163,136.152972 67.0598986,136.142178 67.3295616,136.135891 L67.3295616,136.135891 L67.7256455,136.12962 L69.1146635,136.126116 C71.5839326,136.123389 72.9756049,136.171809 74.6421456,136.369531 L74.6421456,136.369531 L74.9701935,136.410526 C79.9233013,137.061333 83.2890869,138.97035 84.500774,142.625878 C85.7109131,138.97035 89.0766987,137.061333 94.0298065,136.410526 L94.3578544,136.369531 C96.0243951,136.171809 97.4160674,136.123389 99.8853365,136.126116 L101.274355,136.12962 L101.670438,136.135891 C101.940101,136.142178 102.230284,136.152972 102.596816,136.170034 L104.100755,136.248296 C105.877535,136.344773 152.628578,136.401647 154.07063,136.286769 C157.913051,135.980672 160.417859,134.526383 161.907086,131.160137 C162.533471,129.744256 163.08284,124.556376 163.08284,121 L165,121 C165,124.821539 164.43081,130.196593 163.65945,131.940175 C161.899005,135.919482 158.867351,137.753587 154.556532,138.174229 L154.222408,138.20381 C152.700441,138.325054 106.784615,138.270427 104.066192,138.17157 L102.19513,138.077353 L101.738755,138.06144 C101.527266,138.055589 101.334728,138.052696 101.133709,138.051872 L99.1286702,138.050243 C97.1911684,138.058525 95.9798615,138.113574 94.5830415,138.279296 C88.9354888,138.949336 85.9171598,141.183234 85.9171598,146 Z" id="Combined-Shape" fill="#0F1931" fill-rule="nonzero" transform="translate(84.500000, 133.500000) rotate(-270.000000) translate(-84.500000, -133.500000) "></path>
        <path d="M187.08284,245 C187.08284,240.183234 184.064511,237.949336 178.416958,237.279296 C177.020139,237.113574 175.808832,237.058525 173.87133,237.050243 L173.87133,237.050243 L171.866291,237.051872 C171.665272,237.052696 171.472734,237.055589 171.261245,237.06144 L171.261245,237.06144 L170.80487,237.077353 L168.933808,237.17157 C166.215385,237.270427 120.299559,237.325054 118.777592,237.20381 L118.777592,237.20381 L118.443468,237.174229 C114.132649,236.753587 111.100995,234.919482 109.34055,230.940175 C108.56919,229.196593 108,223.821539 108,220 L108,220 L109.91716,220 C109.91716,223.556376 110.466529,228.744256 111.092914,230.160137 C112.582141,233.526383 115.086949,234.980672 118.92937,235.286769 C120.371422,235.401647 167.122465,235.344773 168.899245,235.248296 L168.899245,235.248296 L170.403184,235.170034 C170.769716,235.152972 171.059899,235.142178 171.329562,235.135891 L171.329562,235.135891 L171.725645,235.12962 L173.114664,235.126116 C175.583933,235.123389 176.975605,235.171809 178.642146,235.369531 L178.642146,235.369531 L178.970194,235.410526 C183.923301,236.061333 187.289087,237.97035 188.500774,241.625878 C189.710913,237.97035 193.076699,236.061333 198.029806,235.410526 L198.357854,235.369531 C200.024395,235.171809 201.416067,235.123389 203.885336,235.126116 L205.274355,235.12962 L205.670438,235.135891 C205.940101,235.142178 206.230284,235.152972 206.596816,235.170034 L208.100755,235.248296 C209.877535,235.344773 256.628578,235.401647 258.07063,235.286769 C261.913051,234.980672 264.417859,233.526383 265.907086,230.160137 C266.533471,228.744256 267.08284,223.556376 267.08284,220 L269,220 C269,223.821539 268.43081,229.196593 267.65945,230.940175 C265.899005,234.919482 262.867351,236.753587 258.556532,237.174229 L258.222408,237.20381 C256.700441,237.325054 210.784615,237.270427 208.066192,237.17157 L206.19513,237.077353 L205.738755,237.06144 C205.527266,237.055589 205.334728,237.052696 205.133709,237.051872 L203.12867,237.050243 C201.191168,237.058525 199.979861,237.113574 198.583042,237.279296 C192.935489,237.949336 189.91716,240.183234 189.91716,245 Z" id="Combined-Shape-Copy" fill="#0F1931" fill-rule="nonzero" transform="translate(188.500000, 232.500000) rotate(-360.000000) translate(-188.500000, -232.500000) "></path>
        <path d="M60.744,133.208 C61.4053366,133.378668 61.9146649,133.701331 62.272,134.176 C62.6293351,134.650669 62.808,135.239996 62.808,135.944 C62.808,136.925338 62.4480036,137.70133 61.728,138.272 C61.0079964,138.84267 60.0293395,139.128 58.792,139.128 C58.0346629,139.128 57.3066702,139.010668 56.608,138.776 C55.9093298,138.541332 55.330669,138.221335 54.872,137.816 L55.56,136.312 C56.5413382,137.090671 57.5919944,137.48 58.712,137.48 C59.4266702,137.48 59.9599982,137.338668 60.312,137.056 C60.6640018,136.773332 60.84,136.344003 60.84,135.768 C60.84,135.202664 60.6613351,134.784001 60.304,134.512 C59.9466649,134.239999 59.3946704,134.104 58.648,134.104 L57.16,134.104 L57.16,132.472 L58.376,132.472 C59.8373406,132.472 60.568,131.922672 60.568,130.824 C60.568,130.311997 60.4106682,129.917335 60.096,129.64 C59.7813318,129.362665 59.3360029,129.224 58.76,129.224 C58.2586642,129.224 57.7493359,129.322666 57.232,129.52 C56.7146641,129.717334 56.2106691,130.007998 55.72,130.392 L55.032,128.888 C55.4800022,128.482665 56.0533298,128.162668 56.752,127.928 C57.4506702,127.693332 58.162663,127.576 58.888,127.576 C59.9973389,127.576 60.8826634,127.845331 61.544,128.384 C62.2053366,128.922669 62.536,129.650662 62.536,130.568 C62.5253333,131.197336 62.3626682,131.743998 62.048,132.208 C61.7333318,132.672002 61.2986694,133.005332 60.744,133.208 Z" id="3" fill="#0F1931" fill-rule="nonzero"></path>
        <path d="M170.36,34 L170.36,22.72 L177.752,22.72 L177.752,24.368 L172.392,24.368 L172.392,27.44 L177.432,27.44 L177.432,29.088 L172.392,29.088 L172.392,34 L170.36,34 Z M179.24,34 L179.24,26.176 L181.24,26.176 L181.24,34 L179.24,34 Z M179.128,22.544 L181.336,22.544 L181.336,24.512 L179.128,24.512 L179.128,22.544 Z M183.304,34 L183.304,22.72 L185.304,22.72 L185.304,34 L183.304,34 Z M191.368,32.624 C191.602668,32.624 191.847999,32.6080002 192.104,32.576 L192.008,34.064 C191.687998,34.0960002 191.394668,34.112 191.128,34.112 C190.029328,34.112 189.218669,33.8586692 188.696,33.352 C188.173331,32.8453308 187.912,32.0906717 187.912,31.088 L187.912,27.68 L186.408,27.68 L186.408,26.176 L187.912,26.176 L187.912,23.84 L189.912,23.84 L189.912,26.176 L191.976,26.176 L191.976,27.68 L189.912,27.68 L189.912,31.056 C189.912,32.1013386 190.397328,32.624 191.368,32.624 Z M200.136,30.448 L194.808,30.448 C194.872,31.173337 195.090665,31.7119982 195.464,32.064 C195.837335,32.4160018 196.370663,32.592 197.064,32.592 C197.928004,32.592 198.71733,32.3146694 199.432,31.76 L200.008,33.136 C199.645332,33.4346682 199.189336,33.6746658 198.64,33.856 C198.090664,34.0373342 197.538669,34.128 196.984,34.128 C195.703994,34.128 194.693337,33.765337 193.952,33.04 C193.210663,32.314663 192.84,31.322673 192.84,30.064 C192.84,29.263996 192.999998,28.5546698 193.32,27.936 C193.640002,27.3173302 194.090664,26.837335 194.672,26.496 C195.253336,26.154665 195.911996,25.984 196.648,25.984 C197.725339,25.984 198.575997,26.3306632 199.2,27.024 C199.824003,27.7173368 200.136,28.6719939 200.136,29.888 L200.136,30.448 Z M196.696,27.392 C196.162664,27.392 195.733335,27.562665 195.408,27.904 C195.082665,28.245335 194.882667,28.7359968 194.808,29.376 L198.424,29.376 C198.402667,28.7253301 198.242668,28.2320017 197.944,27.896 C197.645332,27.5599983 197.229336,27.392 196.696,27.392 Z M206.92,27.648 L205.752,27.76 C204.429327,27.8986674 203.768,28.5706606 203.768,29.776 L203.768,34 L201.768,34 L201.768,26.176 L203.672,26.176 L203.672,27.552 C204.077335,26.6133286 204.91466,26.1013338 206.184,26.016 L206.792,25.968 L206.92,27.648 Z" id="Filter" fill="#0F1931" fill-rule="nonzero"></path>
        <path d="M190.744,263.208 C191.405337,263.378668 191.914665,263.701331 192.272,264.176 C192.629335,264.650669 192.808,265.239996 192.808,265.944 C192.808,266.925338 192.448004,267.70133 191.728,268.272 C191.007996,268.84267 190.02934,269.128 188.792,269.128 C188.034663,269.128 187.30667,269.010668 186.608,268.776 C185.90933,268.541332 185.330669,268.221335 184.872,267.816 L185.56,266.312 C186.541338,267.090671 187.591994,267.48 188.712,267.48 C189.42667,267.48 189.959998,267.338668 190.312,267.056 C190.664002,266.773332 190.84,266.344003 190.84,265.768 C190.84,265.202664 190.661335,264.784001 190.304,264.512 C189.946665,264.239999 189.39467,264.104 188.648,264.104 L187.16,264.104 L187.16,262.472 L188.376,262.472 C189.837341,262.472 190.568,261.922672 190.568,260.824 C190.568,260.311997 190.410668,259.917335 190.096,259.64 C189.781332,259.362665 189.336003,259.224 188.76,259.224 C188.258664,259.224 187.749336,259.322666 187.232,259.52 C186.714664,259.717334 186.210669,260.007998 185.72,260.392 L185.032,258.888 C185.480002,258.482665 186.05333,258.162668 186.752,257.928 C187.45067,257.693332 188.162663,257.576 188.888,257.576 C189.997339,257.576 190.882663,257.845331 191.544,258.384 C192.205337,258.922669 192.536,259.650662 192.536,260.568 C192.525333,261.197336 192.362668,261.743998 192.048,262.208 C191.733332,262.672002 191.298669,263.005332 190.744,263.208 Z" id="3" fill="#0F1931" fill-rule="nonzero"></path>
        <polygon id="1" fill="#0F1931" fill-rule="nonzero" points="122.536 93.336 124.984 93.336 124.984 95 118.024 95 118.024 93.336 120.472 93.336 120.472 86.072 118.536 87.24 117.72 85.736 121.064 83.72 122.536 83.72"></polygon>
        <path d="M121,137.608 C122.33334,137.608 123.351996,138.098662 124.056,139.08 C124.760004,140.061338 125.112,141.485324 125.112,143.352 C125.112,145.229343 124.760004,146.663995 124.056,147.656 C123.351996,148.648005 122.33334,149.144 121,149.144 C119.66666,149.144 118.648004,148.650672 117.944,147.664 C117.239996,146.677328 116.888,145.240009 116.888,143.352 C116.888,141.485324 117.239996,140.061338 117.944,139.08 C118.648004,138.098662 119.66666,137.608 121,137.608 Z M121,139.224 C120.274663,139.224 119.746668,139.551997 119.416,140.208 C119.085332,140.864003 118.92,141.911993 118.92,143.352 C118.92,144.802674 119.085332,145.86133 119.416,146.528 C119.746668,147.19467 120.274663,147.528 121,147.528 C121.725337,147.528 122.253332,147.19467 122.584,146.528 C122.914668,145.86133 123.08,144.802674 123.08,143.352 C123.08,141.911993 122.914668,140.864003 122.584,140.208 C122.253332,139.551997 121.725337,139.224 121,139.224 Z" id="0" fill="#0F1931" fill-rule="nonzero"></path>
        <path d="M174,83.608 C175.33334,83.608 176.351996,84.0986618 177.056,85.08 C177.760004,86.0613382 178.112,87.485324 178.112,89.352 C178.112,91.2293427 177.760004,92.663995 177.056,93.656 C176.351996,94.648005 175.33334,95.144 174,95.144 C172.66666,95.144 171.648004,94.6506716 170.944,93.664 C170.239996,92.6773284 169.888,91.2400094 169.888,89.352 C169.888,87.485324 170.239996,86.0613382 170.944,85.08 C171.648004,84.0986618 172.66666,83.608 174,83.608 Z M174,85.224 C173.274663,85.224 172.746668,85.5519967 172.416,86.208 C172.085332,86.8640033 171.92,87.9119928 171.92,89.352 C171.92,90.8026739 172.085332,91.86133 172.416,92.528 C172.746668,93.19467 173.274663,93.528 174,93.528 C174.725337,93.528 175.253332,93.19467 175.584,92.528 C175.914668,91.86133 176.08,90.8026739 176.08,89.352 C176.08,87.9119928 175.914668,86.8640033 175.584,86.208 C175.253332,85.5519967 174.725337,85.224 174,85.224 Z" id="0" fill="#0F1931" fill-rule="nonzero"></path>
        <polygon id="1" fill="#0F1931" fill-rule="nonzero" points="175.536 147.336 177.984 147.336 177.984 149 171.024 149 171.024 147.336 173.472 147.336 173.472 140.072 171.536 141.24 170.72 139.736 174.064 137.72 175.536 137.72"></polygon>
        <polygon id="1" fill="#0F1931" fill-rule="nonzero" points="228.536 93.336 230.984 93.336 230.984 95 224.024 95 224.024 93.336 226.472 93.336 226.472 86.072 224.536 87.24 223.72 85.736 227.064 83.72 228.536 83.72"></polygon>
        <path d="M227,137.608 C228.33334,137.608 229.351996,138.098662 230.056,139.08 C230.760004,140.061338 231.112,141.485324 231.112,143.352 C231.112,145.229343 230.760004,146.663995 230.056,147.656 C229.351996,148.648005 228.33334,149.144 227,149.144 C225.66666,149.144 224.648004,148.650672 223.944,147.664 C223.239996,146.677328 222.888,145.240009 222.888,143.352 C222.888,141.485324 223.239996,140.061338 223.944,139.08 C224.648004,138.098662 225.66666,137.608 227,137.608 Z M227,139.224 C226.274663,139.224 225.746668,139.551997 225.416,140.208 C225.085332,140.864003 224.92,141.911993 224.92,143.352 C224.92,144.802674 225.085332,145.86133 225.416,146.528 C225.746668,147.19467 226.274663,147.528 227,147.528 C227.725337,147.528 228.253332,147.19467 228.584,146.528 C228.914668,145.86133 229.08,144.802674 229.08,143.352 C229.08,141.911993 228.914668,140.864003 228.584,140.208 C228.253332,139.551997 227.725337,139.224 227,139.224 Z" id="0" fill="#0F1931" fill-rule="nonzero"></path>
        <polygon id="1" fill="#0F1931" fill-rule="nonzero" points="122.536 201.336 124.984 201.336 124.984 203 118.024 203 118.024 201.336 120.472 201.336 120.472 194.072 118.536 195.24 117.72 193.736 121.064 191.72 122.536 191.72"></polygon>
        <path d="M174,191.608 C175.33334,191.608 176.351996,192.098662 177.056,193.08 C177.760004,194.061338 178.112,195.485324 178.112,197.352 C178.112,199.229343 177.760004,200.663995 177.056,201.656 C176.351996,202.648005 175.33334,203.144 174,203.144 C172.66666,203.144 171.648004,202.650672 170.944,201.664 C170.239996,200.677328 169.888,199.240009 169.888,197.352 C169.888,195.485324 170.239996,194.061338 170.944,193.08 C171.648004,192.098662 172.66666,191.608 174,191.608 Z M174,193.224 C173.274663,193.224 172.746668,193.551997 172.416,194.208 C172.085332,194.864003 171.92,195.911993 171.92,197.352 C171.92,198.802674 172.085332,199.86133 172.416,200.528 C172.746668,201.19467 173.274663,201.528 174,201.528 C174.725337,201.528 175.253332,201.19467 175.584,200.528 C175.914668,199.86133 176.08,198.802674 176.08,197.352 C176.08,195.911993 175.914668,194.864003 175.584,194.208 C175.253332,193.551997 174.725337,193.224 174,193.224 Z" id="0" fill="#0F1931" fill-rule="nonzero"></path>
        <polygon id="1" fill="#0F1931" fill-rule="nonzero" points="228.536 201.336 230.984 201.336 230.984 203 224.024 203 224.024 201.336 226.472 201.336 226.472 194.072 224.536 195.24 223.72 193.736 227.064 191.72 228.536 191.72"></polygon>
        <path d="M269.5,214.5 L107.5,214.5 L107.5,52.5 L269.5,52.5 L269.5,214.5 Z M268.5,53.5 L108.5,53.5 L108.5,213.5 L268.5,213.5 L268.5,53.5 Z" id="Rectangle" fill="#0F1931" fill-rule="nonzero"></path>
        <polygon id="Line" fill="#0F1931" fill-rule="nonzero" points="161.5 53 160.5 53 160.5 214 161.5 214"></polygon>
        <polygon id="Line-Copy" fill="#0F1931" fill-rule="nonzero" points="215.5 53 214.5 53 214.5 214 215.5 214"></polygon>
        <polygon id="Line" fill="#0F1931" fill-rule="nonzero" points="107.5 160 107.5 161 268.5 161 268.5 160"></polygon>
        <polygon id="Line-Copy" fill="#0F1931" fill-rule="nonzero" points="107.5 106 107.5 107 268.5 107 268.5 106"></polygon>
    </g>
</svg>